<?xml version="1.0" standalone="no"?>
<!DOCTYPE svg PUBLIC "-//W3C//DTD SVG 20010904//EN"
 "http://www.w3.org/TR/2001/REC-SVG-20010904/DTD/svg10.dtd">
<svg version="1.0" xmlns="http://www.w3.org/2000/svg"
 width="16.000000pt" height="16.000000pt" viewBox="0 0 16.000000 16.000000"
 preserveAspectRatio="xMidYMid meet">
<metadata>
Created by potrace 1.11, written by Peter Selinger 2001-2013
</metadata>
<g transform="translate(0.000000,16.000000) scale(0.003125,-0.003125)"
fill="#000000" stroke="none">
<path d="M0 2560 l0 -2560 2560 0 2560 0 0 2560 0 2560 -2560 0 -2560 0 0
-2560z m1480 1080 c10 -5 265 -197 565 -425 301 -228 551 -415 555 -415 5 0
194 142 422 317 227 174 477 365 556 425 l142 108 385 0 c213 0 385 -4 385 -9
0 -5 -340 -258 -755 -562 -415 -305 -755 -557 -755 -561 0 -3 379 -286 843
-628 463 -342 846 -626 852 -631 5 -5 -160 -9 -391 -9 l-399 0 -640 495 c-352
272 -642 494 -645 494 -3 0 -295 -222 -649 -494 l-644 -495 -401 0 c-357 1
-399 2 -381 15 11 9 395 292 853 631 458 339 832 620 830 624 -2 5 -340 256
-753 559 -412 303 -751 555 -753 561 -5 14 752 14 778 0z"/>
</g>
</svg>
